<svg width="24" height="24" fill="none" xmlns="http://www.w3.org/2000/svg"><path fill-rule="evenodd" clip-rule="evenodd" d="M12 24c6.627 0 12-5.373 12-12S18.627 0 12 0 0 5.373 0 12s5.373 12 12 12zm2.209-17.787L14.421 6c2.118.038 4.037 1.504 4.037 1.504 2.156 4.501 2.018 8.387 2.018 8.387-1.755 2.27-4.363 2.106-4.363 2.106l-.89-1.128c1.567-.338 2.558-1.73 2.558-1.73s-2.357 1.605-5.742 1.605-5.742-1.605-5.742-1.605.99 1.392 2.557 1.73l-.89 1.128s-2.607.163-4.363-2.106c0 0-.138-3.886 2.019-8.387 0 0 1.918-1.467 4.037-1.504l.213.213s-2.257.664-3.548 1.818c0 0 2.357-1.442 5.717-1.442 3.36 0 5.716 1.442 5.716 1.442-1.29-1.154-3.547-1.818-3.547-1.818zm-6.219 6.72c0 .864.652 1.592 1.454 1.592.815 0 1.467-.728 1.467-1.593.013-.877-.652-1.592-1.467-1.592-.815 0-1.454.728-1.454 1.592zm5.228 0c0 .864.652 1.592 1.454 1.592.815 0 1.467-.715 1.467-1.593 0-.877-.652-1.592-1.467-1.592-.814 0-1.454.728-1.454 1.592z" fill="#000"/></svg>