<svg width="53" height="60" fill="none" xmlns="http://www.w3.org/2000/svg"><path d="M46.159 18.548 26.092 6.96V0l26.093 15.065-6.026 3.483ZM26.092 6.96 6.026 18.548 0 15.07 26.092.006V6.96Z" fill="#000"/><path d="M52.196 44.977 26.08 60l.012-6.96 20.084-11.55 6.02 3.489Z" fill="#0047FF"/><path d="M26.08 60 .012 44.893l6.032-3.47L26.092 53.04 26.08 60Z" fill="#0047FF"/><path d="M52.185 38.246V15.071l-6.026 3.477v16.21l6.026 3.488Zm-23.261 0V15.071l-6.026 3.477v16.21l6.026 3.488ZM0 38.246V15.071l6.026 3.477v16.21L0 38.245Z" fill="#000"/></svg>