<svg width="150" height="44" fill="none" xmlns="http://www.w3.org/2000/svg"><g clip-path="url(#a)" fill="#000"><path d="M144.212.423v8.98l-9.094-8.98h-4.595v17.784h5.635V9.106l9.15 9.101h4.531V.423h-5.627Zm-87.04 17.784h14.946v-4.966H57.172V5.446h14.962V.423h-20.54v17.784h5.578Zm52.803 0h13.777v-4.474h-13.777v-2.459h13.777V7.292h-13.777V4.898h13.777V.423h-19.356v17.784h5.579Zm-78.358-3.998h8.287v4.03h5.555V.423H26.055v17.784h5.562V14.21Zm0-8.868h8.287v3.95h-8.287v-3.95ZM5.579 11.887h8.142v6.32h5.586V.423h-5.586v6.192H5.579V.423H0v17.784h5.579v-6.32Zm78.067.766h8.642l5.538-5.28h.032V.422h-5.57v6.95h-8.642V.422h-5.579v17.784h5.579v-5.554Zm14.228 0h-5.578v5.554h5.578v-5.554ZM18.541 24.866H0V42.65h5.562v-4.031h13.786V24.866h-.807Zm-4.724 8.867H5.562v-3.925h8.288l-.033 3.925Zm26.458 3.887v5.054h5.184v-5.055h-5.184Z"/><path d="M45.434 24.866H26.087v17.808h5.587v-5.055h8.633l5.184-5.28-.056-7.473Zm-5.514 8.247h-8.287v-3.886h8.287v3.886Zm83.815-8.247H104.42V42.65h5.554v-5.087h13.761v-4.95h-13.761v-2.805h13.761v-4.942Zm-57.179 0H51.594V42.65h20.54V24.866h-5.578Zm0 12.729h-9.368v-7.796h9.384l-.016 7.796ZM97.89 24.866H78.043V42.65H97.89V24.866Zm-5.562 12.729h-8.69v-7.796h8.69v7.796Zm48.541.456a4.33 4.33 0 1 0-1.387-8.547 4.33 4.33 0 0 0 1.387 8.547Zm8.446-7.268v.097l.653-.21v-.105a10.396 10.396 0 0 0-6.272-6.449h-.097l-.234.645h.097a9.675 9.675 0 0 1 5.853 6.022Zm-.073 6.207a9.706 9.706 0 0 1-5.941 5.893h-.105l.226.645h.097a10.378 10.378 0 0 0 6.368-6.312v-.097l-.653-.233.008.104Zm-18.187-.169v-.105l-.653.218v.105a10.359 10.359 0 0 0 6.45 6.505h.096l.226-.653h-.097a9.671 9.671 0 0 1-6.022-6.07Zm.041-6.207a9.681 9.681 0 0 1 6.159-6.006h.105l-.21-.653h-.105a10.374 10.374 0 0 0-6.594 6.45v.096l.645.226v-.113Z"/></g><defs><clipPath id="a"><path fill="#fff" d="M0 0h150v44H0z"/></clipPath></defs></svg>