<svg width="194" height="44" fill="none" xmlns="http://www.w3.org/2000/svg"><g clip-path="url(#a)" fill-rule="evenodd" clip-rule="evenodd" fill="#000"><path d="M8.005 27.336c0 .373.303.676.677.676h6.652a.676.676 0 0 0 .676-.676v-3.321h3.326a.676.676 0 0 0 .677-.676v-2.646a.676.676 0 0 0-.677-.676H8.682a.676.676 0 0 0-.677.676v6.643Zm0-14.66A.676.676 0 0 0 7.328 12H.677a.676.676 0 0 0-.677.676v6.643c0 .373.303.676.677.676h2.649a.676.676 0 0 0 .677-.676v-3.322h3.325a.676.676 0 0 0 .677-.675v-2.646Zm4.003 23.983a.676.676 0 0 0-.677-.676h-2.65a.676.676 0 0 0-.676.676v2.645c0 .373.303.676.677.676h2.649a.676.676 0 0 0 .677-.676V36.66ZM59.362 12H52.71a.676.676 0 0 0-.677.676v2.646c0 .373.303.675.677.675h3.326v3.322c0 .373.303.676.676.676h2.65a.676.676 0 0 0 .676-.676v-6.643a.676.676 0 0 0-.676-.676Zm-8.006 7.995H40.703a.676.676 0 0 0-.676.675v2.646c0 .373.302.676.676.676h3.326v3.321c0 .373.303.676.677.676h6.651a.676.676 0 0 0 .677-.676V20.67a.676.676 0 0 0-.677-.675Zm-4.002 20.008h-3.326v-3.321a.676.676 0 0 0-.677-.676h-3.325v-7.319a.676.676 0 0 0-.677-.675h-3.326v-7.319a.676.676 0 0 0-.677-.676H24.692a.676.676 0 0 0-.677.676v7.319H20.69a.676.676 0 0 0-.676.675v7.319h-3.326a.676.676 0 0 0-.677.676v3.321h-3.326a.676.676 0 0 0-.676.676v2.645c0 .374.303.676.676.676h6.652a.676.676 0 0 0 .677-.675v-3.322h3.326a.676.676 0 0 0 .676-.676V32.01h12.008v7.318c0 .373.303.676.677.676h3.325v3.322c0 .373.303.675.677.675h6.652a.676.676 0 0 0 .677-.675V40.68a.676.676 0 0 0-.677-.676Zm4.002-4.02h-2.649a.676.676 0 0 0-.676.676v2.645c0 .373.303.676.676.676h2.65a.676.676 0 0 0 .676-.676V36.66a.676.676 0 0 0-.677-.676ZM16.686 12h26.665a.676.676 0 0 0 .677-.676V8.676A.676.676 0 0 0 43.35 8h-3.326V4.676A.677.677 0 0 0 39.35 4h-3.326V.676A.677.677 0 0 0 35.346 0H24.692a.677.677 0 0 0-.677.676V4h-3.326a.676.676 0 0 0-.677.676V8h-3.326a.676.676 0 0 0-.676.676v2.648c0 .373.303.676.676.676Zm112.444 7.597a7.405 7.405 0 0 0-5.346 2.254 7.16 7.16 0 0 0-5.235-2.265c-1.158 0-2.34.424-3.251 1.036v-.203a.52.52 0 0 0-.526-.515h-2.937a.522.522 0 0 0-.526.515v14.62a.52.52 0 0 0 .526.515h2.944a.522.522 0 0 0 .526-.515v-8.301a3.24 3.24 0 0 1 3.244-3.237 3.24 3.24 0 0 1 3.244 3.237v8.3a.52.52 0 0 0 .526.516h2.956a.522.522 0 0 0 .526-.515v-8.296c0-1.78 1.484-3.235 3.329-3.235 1.844 0 3.329 1.455 3.329 3.235v8.294a.52.52 0 0 0 .526.515h2.954a.52.52 0 0 0 .526-.515v-8.294c-.002-3.953-3.291-7.146-7.335-7.146Zm22.022 7.852c-1.121-.68-2.561-1.008-3.815-1.292l-.025-.005c-.911-.206-1.712-.39-2.288-.66-.571-.265-.83-.57-.83-.99 0-.363.136-.685.461-.938.333-.26.885-.462 1.736-.512 1.452 0 2.576.034 3.337.069.381.016.671.034.864.046l.22.014.054.004.012.002h.004l.013.002h.012c.226 0 .431-.043.571-.189a.656.656 0 0 0 .161-.375l.001-.015.014-.082.008-.03v-1.802c0-.22-.015-.42-.099-.575-.104-.192-.279-.253-.419-.284l-.014-.001-.013-.002h-.005l-.014-.002a60.25 60.25 0 0 0-4.718-.185h-.011c-2.07.077-3.642.652-4.698 1.56-1.061.911-1.584 2.14-1.584 3.469 0 .874.202 1.591.559 2.182.355.589.853 1.036 1.422 1.386 1.123.688 2.559 1.02 3.811 1.31l.027.005c.912.21 1.714.397 2.29.67.57.27.834.58.834 1.013 0 .36-.168.682-.572.928-.423.255-1.105.426-2.109.426-1.142 0-2.389-.122-3.355-.246a35.561 35.561 0 0 1-1.182-.17c-.144-.024-.258-.044-.337-.056a1.053 1.053 0 0 0-.055-.01l-.034-.005-.022-.003-.007-.002-.025-.005h-.026c-.205 0-.399.037-.537.176a.614.614 0 0 0-.158.353l-.001.015-.019.09-.007.028-.113 2.033v.008a.95.95 0 0 0 .092.432.618.618 0 0 0 .41.338l.007.002.008.002.008-.047-.008.046h.002l.005.002c.003.002.011.002.019.004l.075.014c.064.013.158.029.282.049.249.04.611.091 1.08.145.933.106 2.28.21 3.936.21h.014c.204.002 1.859.015 3.474-.59.81-.304 1.628-.77 2.244-1.484.622-.72 1.024-1.681 1.024-2.942 0-.865-.204-1.577-.56-2.162-.361-.586-.86-1.027-1.431-1.372Zm33.196-7.536a8.48 8.48 0 0 0-4.472 1.26v-6.698a.52.52 0 0 0-.527-.515h-2.947a.52.52 0 0 0-.525.515v20.567a.52.52 0 0 0 .525.516h2.947a.522.522 0 0 0 .527-.516v-.684c1.218.948 2.832 1.64 4.472 1.64 4.586 0 8.319-3.592 8.319-8.043 0-4.45-3.733-8.042-8.319-8.042Zm0 12.202c-2.378 0-4.307-1.863-4.307-4.16s1.928-4.16 4.307-4.16c2.377 0 4.306 1.863 4.306 4.16s-1.926 4.16-4.306 4.16Zm-13.005-12.202h-2.954a.521.521 0 0 0-.527.515v8.502c0 1.755-1.48 3.194-3.328 3.194h-.051c-1.848 0-3.328-1.439-3.328-3.194v-8.502a.521.521 0 0 0-.526-.515h-2.954a.521.521 0 0 0-.527.515v8.502c0 3.912 3.294 7.066 7.335 7.066h.051c4.041 0 7.335-3.154 7.335-7.066v-8.502a.521.521 0 0 0-.526-.515Zm-84.74 7.536c-1.123-.68-2.562-1.008-3.816-1.292l-.025-.005c-.911-.206-1.711-.39-2.287-.66-.571-.265-.83-.57-.83-.99 0-.363.136-.685.46-.938.334-.26.885-.462 1.737-.512 1.452 0 2.576.034 3.336.069.382.016.672.034.864.046l.22.014.054.004.013.002h.003l.013.002h.013c.225 0 .43-.043.57-.189a.65.65 0 0 0 .16-.375c0-.006.003-.01.003-.015.005-.034.009-.059.014-.082l.007-.03v-1.802c0-.22-.014-.42-.099-.575-.104-.192-.279-.253-.42-.284l-.012-.001-.013-.002h-.005l-.014-.002a60.238 60.238 0 0 0-4.718-.185h-.011c-2.071.077-3.642.652-4.7 1.56-1.059.911-1.58 2.14-1.58 3.469 0 .874.2 1.591.557 2.182.355.589.854 1.036 1.424 1.386 1.122.688 2.56 1.02 3.811 1.31l.025.005c.913.21 1.715.397 2.291.67.57.27.835.58.835 1.013 0 .36-.168.682-.573.928-.422.255-1.105.426-2.11.426-1.142 0-2.388-.122-3.354-.246a35.215 35.215 0 0 1-1.181-.17l-.337-.056-.056-.01-.034-.005-.022-.003-.007-.002-.025-.005h-.027c-.206 0-.4.037-.537.176a.617.617 0 0 0-.159.353l-.001.015-.018.09-.008.028-.117 2.031v.008c0 .133.02.29.092.432a.622.622 0 0 0 .41.338l.008.002.007.002.01-.047-.01.047h.002l.005.002.02.003.074.014a23.405 23.405 0 0 0 1.363.194c.932.106 2.28.21 3.937.21h.012c.204.002 1.859.015 3.475-.59.81-.304 1.628-.769 2.244-1.484.622-.72 1.023-1.68 1.023-2.942 0-.865-.203-1.576-.56-2.162-.356-.584-.855-1.025-1.426-1.37Zm20.179-7.536h-2.954a.52.52 0 0 0-.526.515v8.502c0 1.755-1.481 3.194-3.33 3.194h-.05c-1.848 0-3.328-1.439-3.328-3.194v-8.502a.52.52 0 0 0-.526-.515h-2.954a.52.52 0 0 0-.526.515v8.502c0 3.912 3.292 7.066 7.334 7.066h.051c4.04 0 7.335-3.154 7.335-7.066v-8.502a.521.521 0 0 0-.526-.515Z"/></g><defs><clipPath id="a"><path fill="#fff" d="M0 0h194v44H0z"/></clipPath></defs></svg>