<svg width="24" height="24" fill="none" xmlns="http://www.w3.org/2000/svg"><path fill-rule="evenodd" clip-rule="evenodd" d="M12 24c6.627 0 12-5.373 12-12S18.627 0 12 0 0 5.373 0 12s5.373 12 12 12zM8.37 8.221c.262-.253.393-.56.393-.92-.018-.38-.149-.692-.393-.935C8.126 6.122 7.797 6 7.381 6c-.415 0-.749.122-1.002.366C6.126 6.609 6 6.92 6 7.3c0 .361.126.668.38.921.252.253.577.38.974.38.416 0 .754-.127 1.016-.38zM6.081 9.63V18h2.6V9.63h-2.6zm4.09 0c.037 1.011.055 1.905.055 2.681V18h2.627v-4.822c0-.325.027-.541.082-.65.252-.65.695-.975 1.327-.975.885 0 1.327.605 1.327 1.815V18h2.6v-4.957c0-1.192-.275-2.09-.826-2.695-.55-.605-1.277-.908-2.18-.908-1.174 0-2.032.452-2.573 1.355h-.055L12.42 9.63h-2.248z" fill="#000"/></svg>