<svg width="24" height="24" fill="none" xmlns="http://www.w3.org/2000/svg"><path fill-rule="evenodd" clip-rule="evenodd" d="M12 24c6.627 0 12-5.373 12-12S18.627 0 12 0 0 5.373 0 12s5.373 12 12 12zm4.91-17.747l1.095.113a2.536 2.536 0 012.25 2.558v6.152a2.536 2.536 0 01-2.25 2.558l-1.05.113a48.198 48.198 0 01-9.859 0l-1.095-.113a2.536 2.536 0 01-2.25-2.558V8.924A2.536 2.536 0 016 6.366l1.05-.113a48.105 48.105 0 019.858 0zm-5.575 8.163l2.919-1.95h.045a.554.554 0 000-.931l-2.919-1.95a.563.563 0 00-.878.464v3.902a.563.563 0 00.833.465z" fill="#000"/></svg>