<svg width="213" height="42" fill="none" xmlns="http://www.w3.org/2000/svg"><g clip-path="url(#a)" fill="#000"><path d="m45.877 10.127-3.373 9h-7.502l-3.373-9h14.248ZM5.624 32.626h8.88l-3.375 9.002H2.174l3.45-9.002Zm5.173-13.499h8.767l-1.686 4.5H9.073l1.724-4.5Z"/><path d="m43.695 41.628-8.95-.004-8.435-22.497-3.373-9h-8.692L18.125 0h9.622l3.882 10.127 3.448 9 8.618 22.501Z"/><path d="m22.937 10.127-3.373 9H3.374l-3.374-9h22.937Zm5.06 13.499 3.373 9H3.373l-3.373-9h27.997Zm17.881 0-3.373 9H40.25l-3.448-9h9.076Zm2.194 18.081a2.142 2.142 0 0 1-1.57-.635 2.16 2.16 0 0 1-.634-1.568c0-.617.212-1.138.634-1.561.428-.43.947-.64 1.57-.64.622 0 1.141.21 1.563.64.428.423.64.944.64 1.561 0 .618-.212 1.139-.64 1.568-.422.423-.941.635-1.563.635Zm1.324-.858c.36-.366.535-.813.535-1.345s-.177-.978-.535-1.34c-.358-.362-.8-.55-1.324-.55-.525 0-.965.184-1.325.55-.36.366-.535.806-.535 1.34s.177.979.535 1.345a1.81 1.81 0 0 0 1.325.543 1.8 1.8 0 0 0 1.324-.543Zm-1.078-1.261h-.673v.99h-.377V38.32h.886c.565 0 .847.194.847.583 0 .286-.14.466-.418.541.238.055.357.212.357.47v.184c0 .082.012.137.035.164.024.027.08.04.169.04h.04v.276h-.234c-.258 0-.388-.108-.387-.326v-.428c0-.157-.082-.235-.245-.236Zm-.173-.971h-.5v.715h.53c.286 0 .428-.126.428-.378 0-.224-.153-.337-.458-.337Zm13.556 2.939h-5.825l11.651-31.502h6.37l12.07 31.502h-6.37l-2.766-7.35H64.3l-2.599 7.35Zm4.401-12.39h8.843L70.42 17.069l-4.317 12.097Zm35.133 12.391v-6.093c-.796 4.075-2.975 6.511-7.125 6.511-4.274 0-8.547-3.443-8.547-11.045 0-7.35 4.275-10.795 8.55-10.795 4.149 0 6.328 2.394 7.124 6.427V10.055h5.448v31.502h-5.45Zm-4.736-3.403c2.725 0 4.569-2.52 4.569-7.224 0-4.537-1.844-7.057-4.569-7.057-2.724 0-4.903 2.52-4.903 7.057 0 4.704 2.18 7.224 4.903 7.224Zm25.026 3.402h-3.772l-9.011-21h5.993l5.365 13.692 5.448-13.693h5.281l-9.304 21.002Zm19.821-21.421c4.358 0 8.424 2.772 9.429 7.14l-4.986 1.849c-.713-3.865-2.473-5.46-4.777-5.46-2.808 0-4.652 2.604-4.652 7.35 0 5.082 2.221 7.35 4.694 7.35 2.557 0 3.898-1.974 4.736-5.88l4.987 1.848c-.798 4.662-4.988 7.643-9.431 7.643-6.077 0-11.065-4.494-11.065-10.963 0-6.383 4.987-10.877 11.065-10.877Zm38.509 6.048c0 1.134 1.047 1.724 4.4 2.437 5.365 1.134 7.167 3.066 7.167 6.552 0 3.654-2.305 6.804-8.131 6.804-4.359 0-7.375-1.638-8.927-4.956l3.73-2.1c1.048 2.016 2.976 2.898 5.323 2.898 2.221 0 3.101-.714 3.101-1.848 0-1.218-1.047-1.932-4.4-2.646-4.862-1.008-7.167-2.856-7.167-6.762 0-4.2 3.437-6.427 7.67-6.427 3.52 0 6.831 1.302 8.382 4.957l-3.73 1.89c-1.048-2.016-2.599-2.772-4.443-2.772-1.97 0-2.975.799-2.975 1.973Zm19.734 15.373h-5.448V10.054h5.448v17.388c.796-4.662 2.976-7.309 7.125-7.309 3.269 0 6.286 2.227 6.286 6.595v14.827h-5.448V28.788c0-.966-.293-1.849-.838-2.73-.545-.883-1.425-1.303-2.641-1.303-3.353 0-4.484 3.403-4.484 5.04v11.761ZM158.046 28.5l-4.993-1.85c.252-1.12.685-2.094 1.301-2.921a7.91 7.91 0 0 1 2.223-2.04 9.76 9.76 0 0 1 2.937-1.177 15.23 15.23 0 0 1 3.442-.38c3.16 0 5.426.505 6.796 1.515 1.371 1.01 2.057 2.678 2.057 5.004v14.928h-5.475l.02-3.322v-.967l-1.748 2.148a6.604 6.604 0 0 1-3.33 2.205 8.8 8.8 0 0 1-2.391.357c-1.819 0-3.281-.498-4.385-1.494-1.105-.995-1.657-2.362-1.657-4.1 0-1.57.342-2.74 1.027-3.511.685-.77 1.63-1.367 2.833-1.788 1.203-.42 2.63-.798 4.28-1.135 1.651-.336 3.441-.855 5.371-1.555v-.883c0-1.121-.28-1.948-.84-2.481-.561-.533-1.484-.799-2.77-.799-1.567 0-2.637.33-3.21.989-.573.66-1.069 1.745-1.488 3.258Zm.756 6.94c0 .785.237 1.416.712 1.893.475.476 1.147.714 2.015.714.363 0 .79-.084 1.279-.252a4.813 4.813 0 0 0 1.406-.778c.447-.35.867-.792 1.259-1.325.391-.533.685-1.163.881-1.892v-3.36c-2.994.925-5 1.37-6.022 2.099-1.021.729-1.53 1.696-1.53 2.9Z"/></g><defs><clipPath id="a"><path fill="#fff" d="M0 0h213v42H0z"/></clipPath></defs></svg>