<svg width="326" height="107" fill="none" xmlns="http://www.w3.org/2000/svg"><g clip-path="url(#a)"><path fill="#000" d="M0 0h326v107H0z"/><path fill-rule="evenodd" clip-rule="evenodd" d="M-1334-1045h-20v20c0-11.05 8.95-20 20-20zm1640 0c11.046 0 20 8.95 20 20v-20h-20zM326 7c0 11.046-8.954 20-20 20H87.075a20 20 0 00-15.051 6.83l-58.048 66.34A20.001 20.001 0 01-1.075 107H326V7zm-1660 100c-11.05 0-20-8.954-20-20v20h20z" fill="#fff"/></g><defs><clipPath id="a"><path fill="#fff" d="M0 0h326v107H0z"/></clipPath></defs></svg>