<svg width="24" height="24" fill="none" xmlns="http://www.w3.org/2000/svg"><path fill-rule="evenodd" clip-rule="evenodd" d="M12 24c6.627 0 12-5.373 12-12S18.627 0 12 0 0 5.373 0 12s5.373 12 12 12zM9.497 12a2.506 2.506 0 012.501-2.501A2.506 2.506 0 0114.5 12a2.506 2.506 0 01-2.5 2.501A2.506 2.506 0 019.496 12zm10.003-.379v.803c.001.892.003 1.78-.05 2.672-.058 1.2-.33 2.264-1.21 3.145-.878.878-1.943 1.151-3.144 1.21a48.3 48.3 0 01-2.717.049h-.757c-.906 0-1.809.002-2.718-.05-1.2-.058-2.264-.33-3.144-1.21-.879-.878-1.152-1.943-1.21-3.144a47.319 47.319 0 01-.05-2.718v-.756a47.354 47.354 0 01.05-2.718c.058-1.2.33-2.264 1.21-3.144.878-.879 1.943-1.152 3.144-1.21.908-.052 1.81-.05 2.717-.05h.757a47.353 47.353 0 012.718.05c1.2.058 2.264.33 3.145 1.21.878.878 1.151 1.943 1.21 3.144.05.908.05 1.81.049 2.717zM8.15 12a3.843 3.843 0 003.848 3.848A3.843 3.843 0 0015.846 12a3.843 3.843 0 00-3.848-3.848A3.843 3.843 0 008.15 12zm6.955-4.006a.898.898 0 101.798 0 .898.898 0 10-1.798 0z" fill="#000"/></svg>