<svg width="20" height="20" fill="none" xmlns="http://www.w3.org/2000/svg"><path fill-rule="evenodd" clip-rule="evenodd" d="M5.34 4.75a7.02 7.02 0 0111.635 4.48l-.797-.967-1.389 1.145 2.274 2.756 1.197 1.452.379-1.843A8.82 8.82 0 004.145 3.405L5.34 4.75zM2.937 7.836L1.74 6.384l-.38 1.843a8.82 8.82 0 0014.494 8.368l-1.195-1.346A7.02 7.02 0 013.025 10.77l.797.967 1.389-1.146-2.274-2.756zM8.817 10a1.183 1.183 0 112.366 0 1.183 1.183 0 01-2.366 0zM10 7.017a2.983 2.983 0 100 5.966 2.983 2.983 0 000-5.966z" fill="#000"/></svg>