<svg width="274" height="37" fill="none" xmlns="http://www.w3.org/2000/svg"><path d="M69.755 28.463h5.348V7.328h7.002v-5.09H62.868v5.09h6.925l-.038 21.136Zm12.35.001h5.001v-8.82c0-3.07 1.578-4.895 3.963-4.895.77 0 1.539.116 2.27.388v-5.129a6.144 6.144 0 0 0-1.693-.233c-2 0-3.809 1.282-4.54 3.186v-2.953h-5.001v18.456Zm20.815.427c2.539 0 4.424-1.282 5.271-2.487v2.06h5.001V10.009h-5.001v2.059c-.847-1.166-2.732-2.487-5.271-2.487-4.848 0-8.58 4.43-8.58 9.636 0 5.206 3.732 9.674 8.58 9.674Zm1.077-4.623c-2.77 0-4.617-2.099-4.617-5.012 0-2.915 1.847-5.013 4.617-5.013s4.617 2.098 4.617 5.013c0 2.913-1.847 5.011-4.617 5.011Zm21.122 4.623c2.539 0 4.424-1.282 5.271-2.487v2.06h5.001V.762h-5.001v11.306c-.847-1.166-2.732-2.487-5.271-2.487-4.848 0-8.58 4.43-8.58 9.636 0 5.206 3.732 9.674 8.58 9.674Zm1.077-4.623c-2.77 0-4.617-2.099-4.617-5.012 0-2.915 1.847-5.013 4.617-5.013s4.617 2.098 4.617 5.013c0 2.913-1.847 5.011-4.617 5.011Zm16.198-17.29c1.769 0 3.193-1.438 3.193-3.225 0-1.787-1.424-3.225-3.193-3.225-1.77 0-3.194 1.438-3.194 3.225.039 1.787 1.462 3.225 3.194 3.225Zm-2.463 21.486h5.002V10.008h-5.002v18.456Zm9.427 0h5.001V19.45c0-3.536 1.732-5.245 4.04-5.245 2.078 0 3.232 1.631 3.232 4.273v9.986h5.002V17.663c0-4.818-2.617-8.043-7.08-8.043-2.385 0-4.232 1.049-5.232 2.525v-2.098h-5.002l.039 18.417Zm30.048-4.779c-2.578.039-4.694-2.06-4.732-4.701a4.711 4.711 0 0 1 4.655-4.78c2.578-.038 4.694 2.06 4.732 4.702v.039a4.59 4.59 0 0 1-4.463 4.74h-.192Zm-.577 12.86c5.579 0 9.849-2.875 9.849-9.519V10.01h-5.001v2.059c-1.001-1.438-2.963-2.487-5.31-2.487-4.809 0-8.618 4.119-8.618 9.325 0 5.206 3.847 9.325 8.618 9.325 2.347 0 4.309-1.088 5.31-2.448v1.243c0 2.953-1.924 5.05-4.887 5.05-2.116.04-4.193-.815-5.694-2.291l-2.731 3.768c2.039 2.098 5.271 2.992 8.464 2.992Zm20.43-8.082h4.733l10.734-26.225h-5.848l-7.233 18.222-7.349-18.222h-5.733l10.696 26.226Zm20.084-21.485c1.77 0 3.193-1.438 3.193-3.225 0-1.787-1.423-3.225-3.193-3.225s-3.194 1.438-3.194 3.225c0 1.787 1.424 3.225 3.194 3.225Zm-2.501 21.486h5.002V10.008h-5.002v18.456Zm17.967.427c3.848 0 6.772-1.632 8.465-4.118l-3.732-2.798c-.847 1.282-2.424 2.331-4.733 2.331-2.424 0-4.578-1.36-4.848-3.846h13.659a8.908 8.908 0 0 0 .077-1.748c0-6.023-4.194-9.092-9.003-9.092-5.579 0-9.619 4.157-9.619 9.636.039 5.827 4.309 9.635 9.734 9.635Zm-4.655-11.889c.461-2.253 2.578-3.225 4.424-3.225 1.847 0 3.694 1.01 4.117 3.225h-8.541Zm32.357 11.462h4.963l6.04-18.456h-5.386l-3.424 11.812-3.732-11.812h-3.848l-3.693 11.812-3.463-11.812h-5.348l6.079 18.456h4.963l3.386-10.49 3.463 10.49Zm-241.196-.039h-10.08V12.417H1.116V2.237h20.2v26.188Zm20.2 0H29.973l10.81-26.187h11.543L41.515 28.425Zm-11.543-14.57c3.188 0 5.771-2.61 5.771-5.828 0-3.219-2.583-5.828-5.77-5.828-3.188 0-5.772 2.61-5.772 5.828 0 3.219 2.584 5.828 5.771 5.828Z" fill="#000"/></svg>