<svg width="181" height="44" fill="none" xmlns="http://www.w3.org/2000/svg"><path d="m37.611 7.101.227 1.37c.014.08.249 1.537.249 3.844 0 2.193-.213 5.154-1.022 8.434-.77 3.117-2.17 6.83-4.704 10.478-2.536 3.649-6.201 7.235-11.548 10.119l-.654.354-.654-.354c-5.343-2.881-9.009-6.47-11.547-10.119C5.422 27.58 4.02 23.866 3.253 20.75a35.469 35.469 0 0 1-1.021-8.434c0-2.307.235-3.765.249-3.844l.226-1.37A.862.862 0 0 0 2 6.114a.862.862 0 0 0-.988.707l-.227 1.37C.76 8.347.514 9.895.514 12.318c0 2.304.22 5.4 1.07 8.845.809 3.277 2.284 7.192 4.961 11.046 2.678 3.853 6.561 7.642 12.142 10.648l1.062.572a.85.85 0 0 0 .815 0l1.061-.572c5.582-3.008 9.465-6.795 12.143-10.648 2.677-3.855 4.152-7.766 4.961-11.046a37.21 37.21 0 0 0 1.07-8.845c0-2.423-.246-3.968-.272-4.127l-.226-1.37a.857.857 0 1 0-1.69.28Z" fill="#000"/><path d="M7.397 6.167 20.16 2.27l13.046 3.982a.859.859 0 1 0 .5-1.644L20.408.549a.84.84 0 0 0-.5 0L6.892 4.523a.862.862 0 0 0-.571 1.073c.141.455.62.71 1.075.571Z" fill="#000"/><path d="m1.097 7.353 18.298 35.711a.856.856 0 0 0 .756.467c.32.003.614-.17.764-.453L32.072 22.21l.017-.031L39.23 7.336a.859.859 0 1 0-1.548-.744l-7.133 14.825-10.376 19.405L2.625 6.57a.859.859 0 1 0-1.528.784Z" fill="#000"/><path d="M9.854 23.257H30.2a.857.857 0 1 0 0-1.715H9.854a.857.857 0 1 0 0 1.715Zm56.749-7.41H53.368a.828.828 0 0 0-.609.255.832.832 0 0 0-.255.608v10.623c0 .235.085.439.255.608.17.17.374.255.609.255h13.235v1.792H53.368a2.56 2.56 0 0 1-1.883-.776 2.554 2.554 0 0 1-.775-1.882V16.708c0-.74.258-1.365.776-1.883a2.565 2.565 0 0 1 1.882-.775h13.235v1.797Zm24.854-1.791v1.791H78.709v5.268h10.245v1.814H78.71v5.267h12.748v1.792H76.913V14.053h14.543v.003Zm26.248 2.677v4.67c0 .739-.257 1.364-.775 1.882a2.56 2.56 0 0 1-1.882.776h-2.434l5.001 5.932h-2.369l-4.979-5.932h-5.842a8.35 8.35 0 0 1-.863-.088v6.02h-1.791V14.081h13.28a2.56 2.56 0 0 1 1.882.776c.515.512.772 1.137.772 1.876Zm-13.277 5.51h10.623a.803.803 0 0 0 .597-.243.817.817 0 0 0 .243-.597v-4.67a.857.857 0 0 0-.243-.608.796.796 0 0 0-.597-.255h-10.623a.826.826 0 0 0-.608.255.832.832 0 0 0-.255.608v4.67a.79.79 0 0 0 .255.597.83.83 0 0 0 .608.244Zm22.796-8.187h15.935v1.791h-7.062v14.144h-1.792V15.847h-7.081v-1.791Zm25.584 15.934V14.057h1.791V29.99h-1.791Zm25.715-15.934h2.302l-6.663 7.967 6.682 7.968h-2.323l-5.933-7.06h-5.134v7.06h-1.814V14.056h1.814v7.059h5.134l5.935-7.06Z" fill="#000"/></svg>