<svg width="194" height="44" fill="none" xmlns="http://www.w3.org/2000/svg"><path d="M20.207 43.819c-.04 0-.079.039-.079.078 0 .04.04.08.079.08.04 0 .079-.04.079-.08 0-.039-.04-.078-.079-.078Zm-2.047-.709a.17.17 0 0 0-.157.158.17.17 0 0 0 .157.157.17.17 0 0 0 .158-.157.17.17 0 0 0-.158-.158Zm-1.968-.905c-.118 0-.236.118-.196.236 0 .118.078.197.196.197.119 0 .237-.079.237-.197a.254.254 0 0 0-.237-.236Zm-1.889-1.141a.31.31 0 0 0-.315.315.31.31 0 0 0 .315.314.31.31 0 0 0 .315-.314c-.04-.197-.157-.315-.315-.315Zm-1.77-1.339a.353.353 0 0 0-.355.355c0 .196.157.354.354.354a.353.353 0 0 0 .354-.354c.04-.158-.157-.355-.354-.355Zm-1.615-1.495a.437.437 0 0 0-.432.433c0 .236.196.433.432.433a.437.437 0 0 0 .433-.433c.04-.236-.157-.433-.433-.433Zm-1.456-1.653a.521.521 0 0 0-.511.511.52.52 0 0 0 .511.512.521.521 0 0 0 .512-.512.496.496 0 0 0-.512-.511Zm-1.26-1.81a.605.605 0 0 0-.59.59c0 .315.276.59.59.59a.605.605 0 0 0 .591-.59.605.605 0 0 0-.59-.59Zm-.393-1.3a.69.69 0 0 0-.669-.669.69.69 0 0 0-.67.67.69.69 0 0 0 .67.668c.354 0 .67-.275.67-.669Zm-.708-2.007a.747.747 0 1 0-1.495 0 .747.747 0 0 0 1.495 0Zm-.473-2.086a.831.831 0 0 0-.826-.826.831.831 0 0 0-.827.826c0 .473.355.827.827.827a.807.807 0 0 0 .826-.827Zm-.157-2.125a.89.89 0 0 0-.905-.905.89.89 0 0 0-.906.905.89.89 0 0 0 .906.905c.511-.04.905-.433.905-.905Zm-.866-1.22a.974.974 0 0 0 .984-.984.974.974 0 0 0-.984-.984.974.974 0 0 0-.984.984c.04.55.472.984.984.984Zm-.709-3.07c0 .59.473 1.023 1.024 1.023.55 0 1.023-.472 1.023-1.023 0-.59-.472-1.024-1.023-1.024-.551-.039-1.024.433-1.024 1.024Zm31.212 15.9c-.04 0-.08.04-.08.08 0 .038.04.078.08.078.039 0 .078-.04.078-.079 0-.04-.04-.079-.078-.079Zm-1.89.945c-.078 0-.118.04-.118.118 0 .079.04.118.118.158.079 0 .118-.04.158-.119-.04-.078-.118-.157-.158-.157Zm-2.007.748c-.118 0-.197.078-.197.197 0 .118.079.196.197.196.118 0 .197-.078.197-.196 0-.119-.118-.197-.197-.197Zm-2.086.511c-.157 0-.276.119-.236.276 0 .118.118.236.236.236.157 0 .276-.118.276-.236a.27.27 0 0 0-.276-.276ZM28 41.34a.31.31 0 0 0-.315.315.31.31 0 0 0 .315.315.31.31 0 0 0 .314-.315.31.31 0 0 0-.314-.315Zm-2.165.079c-.236 0-.394.157-.394.393 0 .236.158.394.394.394.236 0 .393-.158.393-.394a.394.394 0 0 0-.393-.393Zm-2.165-.158a.479.479 0 0 0-.472.473c0 .236.197.472.472.472a.479.479 0 0 0 .472-.472.455.455 0 0 0-.472-.473c.04 0 0 0 0 0Zm-2.125-.393a.521.521 0 0 0-.512.511.52.52 0 0 0 .512.512.52.52 0 0 0 .511-.512c.04-.275-.196-.511-.511-.511Zm-2.047-.67a.605.605 0 0 0-.59.591c0 .315.275.59.59.59.315 0 .59-.275.59-.59a.605.605 0 0 0-.59-.59Zm-2.007-.905a.663.663 0 0 0-.67.67c0 .393.276.668.67.668.354 0 .67-.275.67-.669a.64.64 0 0 0-.67-.669Zm-1.102-.472a.706.706 0 0 0-.708-.708.705.705 0 0 0-.709.708c0 .394.315.709.709.709.393.039.708-.276.708-.709 0 .04 0 0 0 0Zm-2.4-2.125a.79.79 0 0 0-.788.787.79.79 0 0 0 .787.787.79.79 0 0 0 .787-.787.79.79 0 0 0-.787-.787Zm-1.497-1.614a.874.874 0 0 0-.865.866c0 .472.393.866.865.866a.874.874 0 0 0 .866-.866c-.039-.472-.393-.866-.866-.866Zm-1.298.04a.89.89 0 0 0 .905-.906.89.89 0 0 0-.905-.905.89.89 0 0 0-.906.905.89.89 0 0 0 .906.905Zm-.08-2.795a.974.974 0 0 0-.983-.984.974.974 0 0 0-.984.984c0 .551.433.984.984.984a.974.974 0 0 0 .984-.984Zm32.708-8.187c-.04 0-.04.04-.079.04 0 .04.04.079.079.079.04 0 .04-.04.04-.08.038-.039 0-.039-.04-.039Zm-.63 1.968c-.079 0-.118.04-.118.118 0 .08.04.118.118.118.079 0 .118-.039.118-.118 0-.039-.04-.118-.118-.118Zm-.866 1.929c-.079 0-.157.079-.157.197 0 .078.078.157.196.157.08 0 .158-.079.158-.197 0-.078-.079-.157-.197-.157Zm-1.063 1.85a.254.254 0 0 0-.236.236c0 .118.118.236.236.236a.254.254 0 0 0 .237-.236c0-.158-.08-.236-.237-.236Zm-1.22 1.692c-.157 0-.275.118-.275.315 0 .157.118.276.315.276a.27.27 0 0 0 .275-.276c-.04-.197-.157-.315-.315-.315Zm-1.456 1.535a.353.353 0 0 0-.354.354c0 .197.157.355.354.355a.353.353 0 0 0 .354-.355.353.353 0 0 0-.354-.354Zm-1.574 1.417a.394.394 0 0 0 0 .787.394.394 0 0 0 .393-.393c.04-.237-.157-.394-.393-.394Zm-1.732 1.22a.455.455 0 0 0-.472.472c0 .276.196.473.472.473a.455.455 0 0 0 .472-.473.455.455 0 0 0-.472-.472Zm-1.89.984a.52.52 0 0 0-.51.512.52.52 0 0 0 .51.511.521.521 0 0 0 .512-.511c.04-.276-.196-.512-.511-.512Zm-2.006.748a.605.605 0 0 0-.59.59c0 .315.275.59.59.59.314 0 .59-.275.59-.59a.58.58 0 0 0-.59-.59Zm-2.087.433a.622.622 0 0 0-.63.63c0 .354.276.63.63.63.355 0 .63-.276.63-.63a.647.647 0 0 0-.63-.63Zm-2.125.197a.705.705 0 0 0-.708.708c0 .394.314.709.708.709a.706.706 0 0 0 .709-.709c-.04-.394-.355-.708-.709-.708Zm-1.417.669a.747.747 0 0 0-.748-.748.774.774 0 0 0-.747.748c0 .393.354.748.747.748a.724.724 0 0 0 .748-.748Zm-2.046-.315a.807.807 0 0 0-.827-.827.807.807 0 0 0-.826.827c0 .472.354.826.826.826.433 0 .827-.393.827-.826Zm-2.047-.59a.874.874 0 0 0-.866-.866.874.874 0 0 0-.866.866c0 .472.394.865.866.865a.874.874 0 0 0 .866-.865Zm-1.89-.866a.958.958 0 0 0-.944-.945.958.958 0 0 0-.944.945c0 .511.432.944.944.944a.958.958 0 0 0 .945-.944Zm19.09-28.653c.039 0 .078-.04.078-.04 0-.039-.04-.078-.04-.078-.039 0-.039.039-.039.078-.039 0-.039.04 0 .04Zm.983 1.968c.08 0 .119-.04.119-.118 0-.08-.04-.119-.119-.119-.078 0-.118.04-.118.119 0 .039.08.118.118.118Zm.827 2.046a.17.17 0 0 0 .157-.157.17.17 0 0 0-.157-.158.17.17 0 0 0-.157.158c-.04.079.039.157.157.157Zm.551 2.126a.254.254 0 0 0 .236-.236.254.254 0 0 0-.236-.237.254.254 0 0 0-.236.237c0 .157.118.236.236.236Zm.079 1.889c0 .157.118.275.275.275a.269.269 0 0 0 .276-.275.27.27 0 0 0-.276-.276.269.269 0 0 0-.275.276Zm.433 1.81a.353.353 0 0 0-.354.354c0 .197.157.355.354.355a.353.353 0 0 0 .354-.355.353.353 0 0 0-.354-.354Zm-.079 2.086a.394.394 0 0 0-.394.394c0 .197.197.394.394.394a.394.394 0 0 0 .394-.394.423.423 0 0 0-.394-.394Zm-.354 2.086a.455.455 0 0 0-.472.473c0 .275.196.472.472.472a.455.455 0 0 0 .472-.472.479.479 0 0 0-.472-.473Zm-.04 2.559a.521.521 0 0 0-.511-.512.521.521 0 0 0-.512.512.52.52 0 0 0 .512.511.52.52 0 0 0 .511-.511Zm-1.377 1.377a.605.605 0 0 0-.59.59c0 .315.275.59.59.59.315 0 .59-.275.59-.59-.04-.314-.275-.59-.59-.59Zm-1.142 1.81a.622.622 0 0 0-.63.63c0 .355.276.63.63.63.355 0 .63-.275.63-.63.04-.354-.275-.63-.63-.63Zm-1.338 1.614a.706.706 0 0 0-.708.709c0 .393.315.708.708.708a.705.705 0 0 0 .709-.708.705.705 0 0 0-.709-.709Zm-1.535 1.417a.747.747 0 0 0-.748.748c0 .394.355.748.748.748a.774.774 0 0 0 .748-.748.774.774 0 0 0-.748-.748Zm-1.731 1.22a.807.807 0 0 0-.827.827c0 .472.354.826.827.826a.807.807 0 0 0 .826-.826c0-.433-.394-.787-.826-.827Zm-1.89 1.024a.874.874 0 0 0-.866.865c0 .473.394.866.866.866a.874.874 0 0 0 .866-.865.874.874 0 0 0-.866-.866Zm-2.007.708a.958.958 0 0 0-.944.945c0 .511.432.944.944.944a.958.958 0 0 0 .945-.944.958.958 0 0 0-.945-.945ZM24.103.642c.04 0 .04-.039.04-.078 0-.04-.04-.04-.08-.04-.038 0-.038.04-.038.04.039.04.039.078.078.078Zm2.047.67c.079 0 .118-.04.118-.119 0-.078-.04-.118-.118-.118-.079 0-.118.04-.118.119 0 .078.078.118.118.118Zm2.007.944a.17.17 0 0 0 .157-.157.17.17 0 0 0-.157-.158A.17.17 0 0 0 28 2.1c-.04.078.039.157.157.157Zm1.85 1.102a.254.254 0 0 0 .236-.236.254.254 0 0 0-.236-.236.254.254 0 0 0-.236.236c0 .118.118.236.236.236Zm1.771 1.299a.269.269 0 0 0 .276-.275.269.269 0 0 0-.276-.276.27.27 0 0 0-.275.276.27.27 0 0 0 .275.275Zm1.614 1.496a.353.353 0 0 0 .354-.355.353.353 0 0 0-.354-.354.353.353 0 0 0-.355.354c0 .197.158.355.355.355Zm1.456 1.653a.394.394 0 0 0 0-.787.394.394 0 0 0 0 .787Zm1.299 1.77a.455.455 0 0 0 .472-.471.455.455 0 0 0-.472-.473.455.455 0 0 0-.472.473c0 .275.196.472.472.472Zm1.023 1.969a.521.521 0 0 0 .512-.512.521.521 0 0 0-.512-.512.521.521 0 0 0-.512.512.52.52 0 0 0 .512.512ZM37.406 13c0 .315.276.59.59.59a.605.605 0 0 0 .591-.59.605.605 0 0 0-.59-.59.58.58 0 0 0-.59.59Zm.433 2.086c0 .354.276.63.63.63s.63-.276.63-.63a.622.622 0 0 0-.63-.63.647.647 0 0 0-.63.63Zm.197 2.165c0 .393.315.708.709.708a.705.705 0 0 0 .708-.708.705.705 0 0 0-.709-.709.706.706 0 0 0-.708.709Zm1.417 2.164a.747.747 0 0 0-.748-.747.774.774 0 0 0-.748.747c0 .394.355.748.748.748a.747.747 0 0 0 .748-.748Zm-.236 2.126a.807.807 0 0 0-.827-.827.807.807 0 0 0-.826.827c0 .472.354.826.826.826.433 0 .827-.393.827-.826Zm-.551 2.046a.874.874 0 0 0-.866-.866.874.874 0 0 0-.866.866c0 .473.394.866.866.866.472.04.866-.354.866-.866Zm-1.732 1.063a.958.958 0 0 0-.945.945c0 .511.433.944.945.944a.958.958 0 0 0 .945-.944.932.932 0 0 0-.945-.945ZM8.202 5.601c.04 0 .04-.039.04-.039 0-.04-.04-.04-.04-.078a.084.084 0 0 0-.078.078c.04 0 .04.04.078.04Zm1.929-.944c.079 0 .118-.04.118-.118 0-.079-.04-.118-.118-.118-.079 0-.118.04-.118.118 0 .079.04.118.118.118Zm2.007-.748c.079 0 .197-.078.197-.157s-.079-.197-.157-.197c-.08 0-.197.079-.197.157-.04.119.04.197.157.197Zm2.047-.511a.254.254 0 0 0 .236-.237.254.254 0 0 0-.236-.236.254.254 0 0 0-.236.236c0 .119.118.237.236.237Zm2.125-.315a.269.269 0 0 0 .276-.276.269.269 0 0 0-.276-.275.269.269 0 0 0-.275.275c0 .158.118.276.275.276Zm2.165-.079a.353.353 0 0 0 .354-.354.353.353 0 0 0-.354-.354.353.353 0 0 0-.354.354c0 .197.157.354.354.354Zm2.165.157a.394.394 0 0 0 0-.787.423.423 0 0 0-.394.394c-.04.236.158.393.394.393Zm2.125.394a.455.455 0 0 0 .472-.472.455.455 0 0 0-.472-.473.455.455 0 0 0-.472.473c0 .275.197.472.472.472Zm2.086.63a.52.52 0 0 0 .512-.512.52.52 0 0 0-.512-.512.521.521 0 0 0-.512.512c-.039.276.197.512.512.512Zm1.968.944c.315 0 .59-.275.59-.59a.605.605 0 0 0-.59-.59.605.605 0 0 0-.59.59c0 .315.275.59.59.59Zm1.18.512c0 .354.276.63.63.63.355 0 .63-.276.63-.63a.622.622 0 0 0-.63-.63.647.647 0 0 0-.63.63Zm2.362 2.047a.706.706 0 0 0 .709-.709.706.706 0 0 0-.709-.708.706.706 0 0 0-.708.708c0 .394.315.709.708.709ZM31.857 9.3a.747.747 0 0 0 .748-.747.774.774 0 0 0-.748-.748.774.774 0 0 0-.748.748c-.04.393.315.747.748.747Zm1.26.158a.807.807 0 0 0-.827.826c0 .473.354.827.826.827a.807.807 0 0 0 .827-.827.807.807 0 0 0-.827-.826Zm.157 2.716c0 .472.393.865.866.865a.874.874 0 0 0 .865-.865.874.874 0 0 0-.865-.866c-.473-.04-.866.354-.866.866Zm.748 2.007c0 .511.432.944.944.944a.958.958 0 0 0 .945-.944.958.958 0 0 0-.945-.945.932.932 0 0 0-.944.945Zm1.456 1.062a.974.974 0 0 0-.984.984c0 .551.433.984.984.984a.974.974 0 0 0 .984-.984 1 1 0 0 0-.984-.984Zm-34.99 4.96c-.079 0-.118.039-.118.118 0 .078.04.118.118.118.079 0 .118-.04.118-.118 0-.08-.04-.118-.118-.118ZM1.118 18c-.118 0-.236.078-.236.236 0 .118.078.236.236.236.157 0 .236-.079.236-.236A.254.254 0 0 0 1.118 18Zm1.18-1.732c0-.197-.157-.315-.314-.354-.158-.04-.315.157-.354.314 0 .197.157.315.314.355.237 0 .355-.158.355-.315Zm.748-1.457a.437.437 0 0 0 .433-.432.437.437 0 0 0-.433-.433.437.437 0 0 0-.432.433c0 .236.196.433.432.433Zm1.26-1.653a.538.538 0 0 0 .551-.55.538.538 0 0 0-.551-.552.538.538 0 0 0-.551.551c-.04.315.236.551.551.551Zm1.417-1.495a.69.69 0 0 0 .669-.67.69.69 0 0 0-.67-.668.69.69 0 0 0-.668.669.64.64 0 0 0 .669.669Zm1.574-1.338a.79.79 0 0 0 .787-.788.79.79 0 0 0-.787-.787.79.79 0 0 0-.787.787.79.79 0 0 0 .787.788ZM9.03 9.144c.472 0 .905-.394.905-.866s-.393-.905-.866-.905c-.472 0-.905.393-.905.866 0 .511.394.905.866.905Zm1.89-.945a.974.974 0 0 0 .983-.984.974.974 0 0 0-.984-.984.974.974 0 0 0-.984.984c0 .551.433.984.984.984Z" fill="#000"/><path d="M12.925 7.49c.551 0 1.024-.393 1.102-.944.394.551 1.142.67 1.693.315.157-.118.315-.275.393-.433a1.32 1.32 0 0 0 1.85.276c.079-.04.118-.118.197-.158.472.63 1.338.787 2.007.355.04.078.118.157.197.236a1.74 1.74 0 0 0-.945.433c-.63-.59-1.613-.512-2.164.078l-.118.118a1.486 1.486 0 0 0-.905-.314 1.53 1.53 0 0 0-1.339.826c-.63-.433-1.495-.275-1.889.354a2.436 2.436 0 0 0-.197.473c-.59-.355-1.417-.197-1.77.433a1.327 1.327 0 0 0-.198.669 1.253 1.253 0 0 0-1.653.433 1.11 1.11 0 0 0-.157.59c0 .118 0 .236.04.315-.158-.118-.394-.158-.591-.158a1.1 1.1 0 0 0-1.102 1.102 1.1 1.1 0 0 0 1.102 1.102A1.1 1.1 0 0 0 9.58 12.49c0-.078 0-.196-.04-.275a1.202 1.202 0 0 0 1.654-.354c.118-.197.196-.394.196-.63.197.118.433.197.67.197h.078c-.275.236-.433.59-.472.984-.748-.158-1.496.354-1.653 1.141 0 .079-.04.158-.04.276v.157h-.157c-.748 0-1.338.59-1.338 1.338 0 .158.04.276.079.433h-.08c-.708 0-1.259.551-1.259 1.26 0 .236.08.472.197.669h-.04a1.16 1.16 0 0 0-1.18 1.18c0 .315.118.63.394.866h-.04a1.1 1.1 0 0 0-1.102 1.102 1.1 1.1 0 0 0 1.102 1.102 1.1 1.1 0 0 0 1.102-1.102c0-.314-.118-.59-.314-.787h.078c.315 0 .63-.157.866-.393v.039c0 .276.079.59.276.826a1.302 1.302 0 0 0-.788 1.654c.08.236.197.393.394.55-.63.276-.905 1.024-.63 1.654.118.236.315.472.551.59-.59.275-.826.984-.511 1.574.157.315.433.551.787.63a1.12 1.12 0 0 0 .472 2.125c.079 0 .118 0 .197-.039a1.064 1.064 0 0 0-.67 1.299c.158.512.788.826 1.3.669.55-.197.826-.787.669-1.299a1.052 1.052 0 0 0-.984-.708h-.197c.472-.158.787-.59.787-1.063v-.079c.158.197.394.315.67.394-.434.512-.394 1.299.117 1.732.236.197.512.314.787.275h.04c-.394.512-.276 1.26.275 1.653.197.158.433.236.709.236.118 0 .236 0 .354-.039a1.088 1.088 0 0 0 .315 1.535c.197.118.393.197.63.197.236 0 .511-.079.708-.236-.393.433-.315 1.102.118 1.495.433.394 1.102.315 1.496-.118a1.036 1.036 0 0 0-.04-1.417c.158 0 .276-.04.394-.078 0 .472.275.944.708 1.14-.078 0-.118-.038-.196-.038-.551 0-1.024.433-1.024 1.023 0 .55.433 1.023 1.024 1.023.55 0 1.023-.433 1.023-1.023 0-.394-.197-.709-.551-.905.118.039.197.039.315.039.236 0 .472-.079.669-.197.04.67.669 1.181 1.338 1.142.315-.04.59-.158.787-.394.118.63.709 1.063 1.338.984.355-.04.67-.276.866-.59.118.59.709.984 1.3.865.472-.078.826-.472.904-.984.04.59.551 1.024 1.142.984a1.06 1.06 0 0 0 .984-1.14c-.04-.552-.473-.985-1.024-.985.08-.118.158-.197.237-.354.354.354.865.472 1.298.315-.472.315-.59.944-.275 1.377.315.433.944.59 1.377.276.473-.315.59-.945.276-1.378a1.027 1.027 0 0 0-.827-.433.66.66 0 0 0-.275.04c.315-.197.512-.473.59-.827.236.197.512.276.788.276.669 0 1.22-.551 1.22-1.22v-.04c.196.158.433.236.669.236.63 0 1.18-.511 1.18-1.18 0-.118 0-.236-.039-.355.512.355 1.22.197 1.535-.314.276-.394.236-.945-.04-1.339.198.158.434.276.67.276.59 0 1.062-.472 1.062-1.063a1.058 1.058 0 0 0-1.81-.748c0-.157-.04-.275-.079-.393.472 0 .945-.276 1.142-.709 0 .08 0 .118-.04.197 0 .551.433 1.023.984 1.023.551 0 1.023-.433 1.023-.983 0-.552-.432-1.024-.983-1.024-.394 0-.709.197-.906.512.04-.118.04-.197.04-.315 0-.236-.079-.472-.197-.67.669-.038 1.18-.668 1.141-1.337-.04-.315-.157-.59-.393-.788a1.216 1.216 0 0 0 .984-1.338c-.04-.354-.276-.669-.59-.865.59-.119.983-.709.865-1.3-.079-.472-.512-.826-.984-.905.59-.039 1.023-.55.984-1.141a1.061 1.061 0 0 0-1.141-.984c-.59.04-1.023.551-.984 1.141.04.512.433.945.944.984-.63.04-1.062.551-1.023 1.181.04.394.236.709.59.905-.63.119-1.062.709-.944 1.339.04.236.157.472.315.63-.67.078-1.142.708-1.063 1.377.04.157.079.315.158.472-.67.04-1.22.59-1.22 1.299 0 .118.039.236.039.394h-.079c-.748 0-1.338.59-1.338 1.338v.078h-.197a1.37 1.37 0 0 0-1.378 1.22c-.117-.039-.236-.039-.393-.039-.551 0-1.102.315-1.338.866-.551-.433-1.378-.354-1.81.197-.08.079-.119.197-.198.275a1.296 1.296 0 0 0-1.81-.078c-.118.078-.197.197-.276.354-.432-.551-1.259-.67-1.81-.197l-.118.118a1.28 1.28 0 0 0-1.732-.63.86.86 0 0 0-.197.119c-.157-.709-.866-1.142-1.535-.984a.559.559 0 0 0-.236.078 1.338 1.338 0 0 0-1.338-1.26h-.157c.157-.708-.276-1.377-.984-1.574-.079-.039-.197-.039-.276-.039.276-.669 0-1.417-.669-1.692-.04-.04-.118-.04-.157-.079.433-.551.315-1.378-.236-1.81-.04-.04-.08-.08-.158-.08.551-.432.67-1.259.236-1.81-.04-.078-.118-.118-.157-.196.354-.158.59-.473.669-.827.079-.354 0-.748-.197-1.063.709-.157 1.142-.866.984-1.535 0-.039-.04-.118-.04-.157a1.313 1.313 0 0 0 1.378-1.22v-.276c.709.158 1.417-.236 1.575-.944 0-.079.039-.118.039-.197.63.315 1.417.079 1.732-.551.039-.04.039-.118.078-.158.276.237.63.355.984.315.394-.039.748-.275.984-.59.394.59 1.22.708 1.81.315a.307.307 0 0 0 .158-.158 1.29 1.29 0 0 0 1.693.709l.236-.118c.079.393.315.708.669.905.275.157.63.197.945.118.039.04.078.079.118.158 0 .275.118.55.314.787l.04.039c.669.709 2.204 2.361 1.889 4.605-.079.551.236.826.63.393 2.44-2.637 2.046-5.864 2.007-6.218 0-.236-.079-.472-.157-.708.039-.158.039-.276.039-.434a2.07 2.07 0 0 0-.827-1.652c.04-.119.04-.237.04-.394 0-.827-.512-1.535-1.26-1.85 0-.945-.708-1.692-1.613-1.85a1.811 1.811 0 0 0-1.772-1.495h-.078a1.738 1.738 0 0 0-1.653-1.181c-.158 0-.276 0-.433.04-.394-.827-1.338-1.182-2.165-.788h-.04a1.544 1.544 0 0 0-2.125-.551.564.564 0 0 0-.157.118c-.472-.63-1.378-.787-2.007-.315a.92.92 0 0 0-.276.276c-.472-.551-1.299-.67-1.85-.197-.157.118-.275.315-.393.472-.433-.511-1.22-.59-1.732-.157a1.216 1.216 0 0 0-.433.787c-.354-.472-1.063-.59-1.535-.197-.472.354-.59 1.063-.197 1.535.118.472.433.63.787.63ZM5.447 36.105c-.039 0-.078.04-.078.08 0 .038.039.078.078.078.04 0 .079-.04.079-.079.04-.04 0-.079-.079-.079Zm-.984-2.007a.17.17 0 0 0-.157.158.17.17 0 0 0 .157.157.17.17 0 0 0 .158-.157.17.17 0 0 0-.158-.158Zm-.787-2.086a.269.269 0 0 0-.275.276.27.27 0 0 0 .275.275.27.27 0 0 0 .276-.275c-.04-.158-.158-.276-.276-.276Zm-.59-2.165a.353.353 0 0 0-.354.355c0 .197.157.354.354.354a.353.353 0 0 0 .354-.354.353.353 0 0 0-.354-.355Zm.079-1.77a.437.437 0 0 0-.433-.434.437.437 0 0 0-.433.433c0 .236.196.433.433.433a.437.437 0 0 0 .433-.433Zm-.08-2.165a.521.521 0 0 0-.51-.512.521.521 0 0 0-.513.512c0 .275.237.511.512.511.315 0 .512-.197.512-.511Zm-1.022-2.126c0 .315.275.59.59.59.315 0 .59-.275.59-.59a.605.605 0 0 0-.59-.59c-.315-.04-.551.236-.59.59Zm.944-1.456c.394 0 .67-.315.67-.67a.663.663 0 0 0-.67-.668.663.663 0 0 0-.669.669c-.04.354.276.669.67.669Zm.59-3.542a.79.79 0 0 0-.787.787.79.79 0 0 0 .787.787.79.79 0 0 0 .788-.787.79.79 0 0 0-.788-.787Zm.866-.354a.874.874 0 0 0 .866-.866.873.873 0 0 0-.866-.866.874.874 0 0 0-.866.866c0 .472.394.866.866.866Z" fill="#000"/><path d="M5.566 16.662a.958.958 0 0 0 .944-.945.958.958 0 0 0-.944-.945.958.958 0 0 0-.945.945c0 .55.433.944.945.944Zm2.361-2.598c0-.551-.472-1.024-1.023-1.024-.551 0-1.023.473-1.023 1.024 0 .55.472 1.023 1.023 1.023.59 0 1.023-.472 1.023-1.023Zm52.937 16.412a8.082 8.082 0 0 1-3.188-.63 8.452 8.452 0 0 1-2.598-1.77 8.118 8.118 0 0 1-1.731-2.598 8.15 8.15 0 0 1 0-6.376c.826-1.968 2.361-3.543 4.33-4.37a8.247 8.247 0 0 1 6.414 0 8.747 8.747 0 0 1 2.638 1.811c.157.158.275.394.354.59.079.276.04.591-.118.827a1.116 1.116 0 0 1-.788.473c-.393 0-.669-.119-.865-.315-.63-.512-1.3-.984-2.008-1.338a5.197 5.197 0 0 0-2.44-.59c-.826 0-1.614.157-2.361.471-.709.315-1.378.748-1.929 1.339a6.124 6.124 0 0 0-1.299 1.968 6.14 6.14 0 0 0 0 4.723c.59 1.456 1.771 2.637 3.228 3.266a6.023 6.023 0 0 0 2.361.473c.866 0 1.693-.158 2.48-.512.747-.315 1.417-.827 1.968-1.417.157-.197.393-.315.669-.393.078-.04.157-.04.236-.04.197 0 .393.079.55.158.276.196.395.511.395.826 0 .315-.119.59-.315.827-.748.826-1.653 1.456-2.677 1.928a8.555 8.555 0 0 1-3.306.67Zm17.081-.039a8.082 8.082 0 0 1-3.188-.63 7.71 7.71 0 0 1-2.598-1.732 7.712 7.712 0 0 1-1.731-2.597 8.15 8.15 0 0 1 0-6.376 9.085 9.085 0 0 1 1.731-2.598 8.453 8.453 0 0 1 2.598-1.771 8.15 8.15 0 0 1 6.376 0 8.186 8.186 0 0 1 4.369 4.369 8.15 8.15 0 0 1 0 6.376c-.394.984-1.023 1.85-1.771 2.597a8.118 8.118 0 0 1-2.598 1.732c-.984.433-2.086.63-3.188.63Zm0-14.248c-.826 0-1.613.158-2.361.473a6.401 6.401 0 0 0-1.929 1.298 6.404 6.404 0 0 0-1.299 1.929 6.14 6.14 0 0 0 0 4.723c1.3 3.07 4.88 4.526 7.95 3.227a6.402 6.402 0 0 0 1.93-1.299 6.13 6.13 0 0 0 1.298-6.651 6.402 6.402 0 0 0-1.299-1.929 6.402 6.402 0 0 0-1.928-1.299 6.023 6.023 0 0 0-2.362-.472Zm22.631 14.287c-.59 0-1.062-.472-1.062-1.063v-9.367c0-.511-.118-1.023-.315-1.535-.394-.944-1.181-1.692-2.126-2.125a3.698 3.698 0 0 0-3.03 0 3.443 3.443 0 0 0-1.26.866 3.87 3.87 0 0 0-.826 1.26 3.961 3.961 0 0 0-.315 1.534v9.367a1.075 1.075 0 0 1-1.063 1.063c-.59 0-1.062-.472-1.062-1.023v-9.367c0-.788.157-1.614.472-2.362a6.404 6.404 0 0 1 1.299-1.928 6.403 6.403 0 0 1 1.928-1.3 6.042 6.042 0 0 1 4.684 0 6.156 6.156 0 0 1 3.227 3.228c.315.748.473 1.535.473 2.362v9.367c0 .275-.118.55-.315.748a.746.746 0 0 1-.709.275Zm10.352 0a6.48 6.48 0 0 1-2.283-.393c-.669-.236-1.299-.63-1.889-1.063a5.105 5.105 0 0 1-1.26-1.614 4.385 4.385 0 0 1-.472-1.968c0-.55.433-.984.984-.984.551 0 .984.433.984.984 0 .394.078.827.275 1.181.197.354.473.709.787.984.355.275.788.512 1.22.67a5.198 5.198 0 0 0 1.535.235 5 5 0 0 0 1.535-.236c.473-.157.866-.393 1.26-.669.354-.236.63-.59.826-.945a1.94 1.94 0 0 0 .237-1.141 2.439 2.439 0 0 0-.355-1.063 3.653 3.653 0 0 0-.826-.905 4.363 4.363 0 0 0-1.181-.669 6.355 6.355 0 0 0-1.417-.393c-.708-.04-1.377-.197-2.046-.394a6.478 6.478 0 0 1-1.732-.866c-.473-.354-.905-.748-1.22-1.26a3.097 3.097 0 0 1-.473-1.652c0-.59.158-1.142.433-1.654.315-.511.709-.984 1.22-1.338a6.186 6.186 0 0 1 1.772-.866 7.115 7.115 0 0 1 4.25 0c.669.236 1.26.512 1.771.866.512.394.906.827 1.22 1.338.315.512.433 1.063.433 1.653a1.058 1.058 0 0 1-1.81.748c-.197-.197-.276-.472-.315-.787 0-.275-.118-.511-.275-.708-.197-.276-.433-.473-.709-.67a5.456 5.456 0 0 0-1.102-.472c-.433-.118-.866-.197-1.338-.157-.472 0-.945.04-1.378.157a5.505 5.505 0 0 0-1.102.473 3.038 3.038 0 0 0-.708.708 1.415 1.415 0 0 0-.236.787c0 .276.078.473.315.709.236.275.511.472.826.63.354.196.748.354 1.141.472.394.118.788.197 1.181.275a8.613 8.613 0 0 1 2.204.551 6.29 6.29 0 0 1 1.811 1.063c.511.433.944.945 1.22 1.535.315.59.472 1.26.433 1.928a4.44 4.44 0 0 1-.472 2.008 5.107 5.107 0 0 1-1.26 1.613c-1.023.788-2.519 1.339-4.014 1.3Zm10.587 0c-.59 0-1.063-.472-1.063-1.023V15.087a1.075 1.075 0 0 1 1.063-1.063h8.777c.59 0 1.062.473 1.062 1.024a1.078 1.078 0 0 1-1.062 1.062h-7.714v5.038h5.47c.591 0 1.063.473 1.063 1.063s-.472 1.063-1.063 1.063h-5.47v5.116h7.714c.59 0 1.062.473 1.062 1.023a1.078 1.078 0 0 1-1.062 1.063h-8.777Zm23.694 0a1.058 1.058 0 0 1-1.063-1.063v-9.367c0-.511-.118-1.023-.315-1.535-.394-.944-1.181-1.692-2.125-2.125a3.699 3.699 0 0 0-3.031 0 3.441 3.441 0 0 0-1.259.866c-.355.354-.63.787-.866 1.26a3.957 3.957 0 0 0-.315 1.534v9.367c0 .59-.472 1.063-1.063 1.063-.59 0-1.062-.472-1.062-1.063v-9.367a6.03 6.03 0 0 1 3.66-5.55 6.14 6.14 0 0 1 4.723 0 6.406 6.406 0 0 1 1.928 1.3c.551.55.984 1.22 1.299 1.928.315.748.473 1.535.473 2.362v9.367c.078.55-.394 1.023-.984 1.023Zm10.312 0a6.48 6.48 0 0 1-2.283-.393 6.867 6.867 0 0 1-1.889-1.063 5.105 5.105 0 0 1-1.26-1.614 4.385 4.385 0 0 1-.472-1.968c0-.275.118-.511.275-.708a.998.998 0 0 1 1.417 0 .948.948 0 0 1 .276.708c0 .394.078.788.275 1.181.197.394.472.709.787.984.355.275.788.512 1.22.67a5.198 5.198 0 0 0 1.535.235 5 5 0 0 0 1.535-.236c.473-.157.866-.393 1.26-.669.354-.276.63-.59.826-.945a1.94 1.94 0 0 0 .237-1.141 2.439 2.439 0 0 0-.355-1.063 3.653 3.653 0 0 0-.826-.905 4.363 4.363 0 0 0-1.181-.669 6.355 6.355 0 0 0-1.417-.393c-.708-.04-1.377-.197-2.046-.394a6.478 6.478 0 0 1-1.732-.866c-.473-.354-.905-.748-1.22-1.26a3.097 3.097 0 0 1-.473-1.652c0-.59.158-1.142.433-1.654.315-.511.709-.984 1.22-1.338a6.492 6.492 0 0 1 1.732-.866 7.118 7.118 0 0 1 4.251 0c.669.236 1.259.512 1.771.866.472.354.905.787 1.22 1.338.315.512.433 1.063.433 1.653a1.075 1.075 0 0 1-1.063 1.063c-.275 0-.551-.118-.747-.315-.197-.197-.276-.472-.315-.787 0-.275-.118-.511-.276-.708-.197-.276-.433-.473-.708-.67a5.505 5.505 0 0 0-1.102-.472c-.433-.118-.866-.197-1.338-.157-.473 0-.945.04-1.378.157a5.456 5.456 0 0 0-1.102.473 3.024 3.024 0 0 0-.709.708 1.423 1.423 0 0 0-.236.787c0 .276.118.473.315.709.236.275.551.472.866.63.354.196.748.354 1.141.472.394.118.788.197 1.181.275a8.613 8.613 0 0 1 2.204.551c.669.276 1.26.63 1.811 1.063.511.433.944.945 1.22 1.535.315.59.472 1.26.472 1.928 0 .709-.157 1.378-.472 2.008a5.107 5.107 0 0 1-1.26 1.613c-1.062.788-2.519 1.339-4.053 1.3Zm15.861 0c-.59 0-1.063-.472-1.063-1.023V24.1l-6.455-8.383c-.157-.197-.236-.473-.236-.748s.158-.551.355-.708c.196-.158.432-.237.669-.237.354.04.59.158.787.394l5.943 7.636 6.022-7.636c.157-.236.433-.354.708-.394.315 0 .551.08.748.237.236.157.354.433.394.708.039.276-.079.551-.237.748l-6.612 8.383v5.353c0 .275-.118.55-.315.748a.78.78 0 0 1-.708.275Zm15.783 0a6.48 6.48 0 0 1-2.283-.393c-.669-.236-1.299-.63-1.889-1.063a5.105 5.105 0 0 1-1.26-1.614 4.385 4.385 0 0 1-.472-1.968c0-.55.433-.984.984-.984.275 0 .511.118.708.315.197.197.315.433.276.709 0 .393.078.826.275 1.18.197.355.473.709.827.984.354.276.787.512 1.22.67a5.196 5.196 0 0 0 1.535.236c.512 0 1.063-.08 1.535-.236.472-.158.866-.394 1.259-.67.355-.275.63-.59.827-.944a1.94 1.94 0 0 0 .236-1.142 2.425 2.425 0 0 0-.354-1.062 3.656 3.656 0 0 0-.827-.905 4.36 4.36 0 0 0-1.181-.67 6.347 6.347 0 0 0-1.416-.393c-.709-.04-1.378-.197-2.047-.394a6.49 6.49 0 0 1-1.732-.866c-.472-.354-.905-.747-1.22-1.26a3.097 3.097 0 0 1-.472-1.652c0-.59.157-1.142.433-1.653.315-.512.708-.984 1.22-1.338a6.478 6.478 0 0 1 1.732-.866 7.116 7.116 0 0 1 4.25 0c.63.197 1.22.511 1.732.866.472.354.905.787 1.22 1.338.276.511.433 1.063.433 1.653a1.058 1.058 0 0 1-1.81.748c-.197-.197-.276-.473-.315-.788 0-.275-.118-.511-.276-.708-.197-.276-.433-.472-.748-.67a5.456 5.456 0 0 0-1.102-.471c-.433-.118-.865-.197-1.338-.158-.472 0-.944.04-1.377.158a5.456 5.456 0 0 0-1.102.472 3.024 3.024 0 0 0-.709.708 1.422 1.422 0 0 0-.236.788c0 .275.079.472.315.708.236.276.512.472.866.63a5.81 5.81 0 0 0 1.141.472c.394.118.787.197 1.181.276a8.613 8.613 0 0 1 2.204.55c.708.276 1.299.63 1.811 1.063.511.433.944.945 1.22 1.535.314.59.472 1.26.433 1.929 0 .708-.158 1.377-.473 2.007a5.117 5.117 0 0 1-1.259 1.614c-.984.748-2.44 1.299-3.975 1.26Z" fill="#000"/></svg>