<svg width="189" height="39" fill="none" xmlns="http://www.w3.org/2000/svg"><g clip-path="url(#a)" fill="#000"><path d="m60.57 29.514-1.795-4.953h-8.762l-1.794 4.953h-4.442L52.052 7.84h4.867l8.214 21.672H60.57Zm-6.176-16.996-2.981 8.192h5.962l-2.98-8.192Zm35.143 16.995h-4.41L75.33 14.139v15.376h-4.198V7.84h5.232l8.974 14.336V7.841h4.198v21.673Zm12.389-11.799h3.316c2.099 0 3.377-1.222 3.377-3.087 0-1.926-1.278-3.118-3.377-3.118h-3.315v6.205h-.001Zm3.833 3.638h-3.864v8.162h-4.198V7.84h8.062c4.259 0 7.088 2.843 7.088 6.756 0 3.943-2.829 6.755-7.088 6.755Zm16.679-2.69c0 4.89 3.407 7.214 6.723 7.214 3.346 0 6.753-2.323 6.753-7.214 0-4.89-3.407-7.214-6.753-7.214-3.317 0-6.724 2.323-6.724 7.214h.001Zm-4.35.03c0-7 5.231-11.31 11.072-11.31 5.871 0 11.103 4.31 11.103 11.31 0 6.97-5.232 11.28-11.103 11.28-5.84 0-11.072-4.31-11.072-11.28Zm32.13-.03c0 4.89 3.408 7.214 6.724 7.214 3.346 0 6.753-2.323 6.753-7.214 0-4.89-3.407-7.214-6.753-7.214-3.316 0-6.724 2.323-6.724 7.214Zm-4.349.03c0-7 5.232-11.31 11.073-11.31 5.871 0 11.104 4.31 11.104 11.31 0 6.97-5.233 11.28-11.104 11.28-5.841 0-11.073-4.31-11.073-11.28Zm42.87 10.822h-13.811V7.84h4.198v17.64h9.613v4.035Z"/><path fill-rule="evenodd" clip-rule="evenodd" d="M12.275 0c.643 0 1.242.326 1.588.866l22.644 35.24a1.876 1.876 0 0 1-.868 2.753 1.87 1.87 0 0 1-.72.14H23.913a1.887 1.887 0 0 1-1.603-.888L.374 2.87A1.876 1.876 0 0 1 1.257.14a1.87 1.87 0 0 1 .72-.14h10.298Z"/><path fill-rule="evenodd" clip-rule="evenodd" d="M24.621 0H34.92a1.87 1.87 0 0 1 1.33.547 1.886 1.886 0 0 1 .556 1.332c0 .35-.098.693-.283.99L14.586 38.112a1.894 1.894 0 0 1-1.603.889H1.977a1.87 1.87 0 0 1-1.33-.547A1.887 1.887 0 0 1 .09 37.12c0-.36.104-.711.298-1.014L23.032.866c.346-.54.944-.866 1.59-.866Z"/></g><defs><clipPath id="a"><path fill="#fff" d="M0 0h189v39H0z"/></clipPath></defs></svg>