<svg width="228" height="42" fill="none" xmlns="http://www.w3.org/2000/svg"><g clip-path="url(#a)" fill="#000"><path d="m211.775 34.318-8.504-19.6h5.702l5.8 14.037 6.712-14.037h5.605l-13.229 26.995h-5.67l3.584-7.395Zm-20.657-4.057c.488-.131.977-.295 1.433-.557a6.195 6.195 0 0 0 1.206-.85 5.38 5.38 0 0 0 .945-1.146c.26-.458.488-.949.619-1.44a5.952 5.952 0 0 0 .228-1.701c0-.589-.065-1.145-.228-1.701-.131-.491-.359-.982-.619-1.44a5.38 5.38 0 0 0-.945-1.146 6.19 6.19 0 0 0-1.206-.85 7.536 7.536 0 0 0-1.433-.524 5.315 5.315 0 0 0-1.597-.163 8.83 8.83 0 0 0-1.597.163c-.488.098-.977.295-1.433.524a5.357 5.357 0 0 0-1.206.85 5.38 5.38 0 0 0-.945 1.146c-.26.458-.489.949-.619 1.44a6.11 6.11 0 0 0-.228 1.701c0 .556.065 1.145.228 1.701.13.491.359.982.619 1.44.261.426.587.818.945 1.146.359.327.782.621 1.206.85.456.23.912.426 1.433.556a5.193 5.193 0 0 0 1.597.164c.521.033 1.043-.033 1.597-.163Zm-5.768 4.384a9.865 9.865 0 0 1-2.509-1.014 9.378 9.378 0 0 1-3.649-3.665 9.945 9.945 0 0 1-1.01-2.52 12.293 12.293 0 0 1 0-5.759 9.944 9.944 0 0 1 1.01-2.52c.847-1.537 2.118-2.78 3.649-3.664.782-.425 1.63-.785 2.509-1.014.945-.23 1.89-.36 2.868-.36.521 0 1.042.033 1.564.098.488.065.945.164 1.401.294.423.131.847.262 1.238.458.391.164.749.36 1.108.59.326.196.651.458.912.72.261.261.521.523.717.817V14.75h5.409v19.7h-5.409v-2.356a7.314 7.314 0 0 1-2.737 2.127 6.762 6.762 0 0 1-1.955.589c-.75.13-1.532.229-2.281.196-.945 0-1.89-.098-2.835-.36Zm-19.615-14.92c.782 0 1.564-.066 2.314-.263.586-.163 1.14-.425 1.596-.818.424-.36.75-.818.945-1.341.196-.59.326-1.21.293-1.833 0-.621-.097-1.243-.293-1.832-.195-.524-.521-.949-.945-1.309-.456-.36-1.01-.654-1.596-.785a7.86 7.86 0 0 0-2.314-.262h-5.311v8.442h5.311ZM154.82 6.634h11.469a14.855 14.855 0 0 1 4.659.655c1.206.36 2.314 1.014 3.259 1.832a7.596 7.596 0 0 1 1.922 2.814c.424 1.146.652 2.356.619 3.567 0 1.21-.195 2.421-.619 3.534a7.596 7.596 0 0 1-1.922 2.814 8.487 8.487 0 0 1-3.259 1.832 14.989 14.989 0 0 1-4.659.655h-5.832v10.11h-5.605l-.032-27.812Zm-24.014 8.083h5.376v2.356a5.17 5.17 0 0 1 1.173-1.211 6.57 6.57 0 0 1 1.531-.916 9.097 9.097 0 0 1 1.89-.59c.717-.13 1.434-.195 2.183-.195a8.77 8.77 0 0 1 3.324.556c.945.36 1.825.916 2.541 1.636a7.039 7.039 0 0 1 1.564 2.65c.391 1.146.554 2.323.554 3.534v11.91h-5.376V23.946c0-.752-.098-1.538-.326-2.258a4.781 4.781 0 0 0-.912-1.636 3.746 3.746 0 0 0-1.466-.981 6.354 6.354 0 0 0-3.976 0 3.753 3.753 0 0 0-1.466.981 4.781 4.781 0 0 0-.912 1.637 7.574 7.574 0 0 0-.326 2.257V34.45h-5.344l-.032-19.731Zm-13.229 15.477c.521-.13 1.01-.294 1.466-.556a4.603 4.603 0 0 0 1.206-.884 6.36 6.36 0 0 0 .912-1.178c.261-.458.456-.916.554-1.407a6.935 6.935 0 0 0 0-3.272 5.265 5.265 0 0 0-1.466-2.585 5.197 5.197 0 0 0-1.206-.883c-.456-.262-.977-.426-1.466-.557a7.486 7.486 0 0 0-1.694-.196c-.554 0-1.141.066-1.695.196-.521.131-1.01.295-1.466.557a4.601 4.601 0 0 0-1.206.883c-.358.36-.651.753-.912 1.178a6.399 6.399 0 0 0-.554 4.712c.13.49.326.982.554 1.407.228.425.554.818.912 1.178.359.36.75.654 1.206.884a7.16 7.16 0 0 0 1.466.556c.554.13 1.108.196 1.695.196a5.87 5.87 0 0 0 1.694-.229Zm-4.855 4.45a11.95 11.95 0 0 1-2.802-1.014 11.115 11.115 0 0 1-2.314-1.57c-.684-.622-1.27-1.31-1.727-2.095a10.218 10.218 0 0 1-1.107-2.52 10.785 10.785 0 0 1 0-5.759c.26-.883.619-1.734 1.107-2.52a9.945 9.945 0 0 1 4.041-3.664 11.95 11.95 0 0 1 2.802-1.014 13.889 13.889 0 0 1 6.354 0 11.7 11.7 0 0 1 2.769 1.014c.848.425 1.597.949 2.314 1.604a9.813 9.813 0 0 1 1.759 2.094c.489.785.88 1.636 1.108 2.52a10.805 10.805 0 0 1 0 5.758 9.5 9.5 0 0 1-2.867 4.614 10.313 10.313 0 0 1-2.314 1.57c-.879.459-1.824.786-2.769 1.015a14.36 14.36 0 0 1-6.354-.033Zm-20.918-4.45c.52-.13 1.01-.294 1.466-.556a4.588 4.588 0 0 0 1.205-.884c.359-.36.652-.752.913-1.178.26-.458.456-.916.554-1.407a6.96 6.96 0 0 0 0-3.272 5.267 5.267 0 0 0-1.467-2.585 5.19 5.19 0 0 0-1.205-.883c-.456-.262-.978-.426-1.466-.557a7.482 7.482 0 0 0-1.695-.196 7.53 7.53 0 0 0-1.694.196c-.522.131-1.01.295-1.466.557a5.19 5.19 0 0 0-1.206.883c-.358.327-.652.753-.912 1.178a7.434 7.434 0 0 0-.554 1.407c-.13.524-.228 1.08-.196 1.636 0 .556.065 1.113.196 1.636.13.491.326.982.554 1.407.228.426.554.818.912 1.178s.75.655 1.206.884c.456.229.945.425 1.466.556a7.269 7.269 0 0 0 1.694.196c.554 0 1.14-.065 1.695-.196Zm-4.888 4.45a11.956 11.956 0 0 1-2.802-1.014 11.1 11.1 0 0 1-2.314-1.57c-.684-.622-1.27-1.31-1.727-2.095a10.217 10.217 0 0 1-1.107-2.52 10.799 10.799 0 0 1 0-5.759c.26-.883.619-1.734 1.108-2.52a10.728 10.728 0 0 1 1.726-2.093 10.436 10.436 0 0 1 2.314-1.604c.88-.458 1.825-.785 2.802-1.014a14.86 14.86 0 0 1 6.354 0c.977.229 1.89.556 2.77 1.014a10.11 10.11 0 0 1 2.313 1.604 9.82 9.82 0 0 1 1.759 2.094c.489.785.88 1.636 1.108 2.52a10.805 10.805 0 0 1 0 5.759 9.496 9.496 0 0 1-2.867 4.613 10.306 10.306 0 0 1-2.314 1.57 12.2 12.2 0 0 1-2.77 1.015 13.883 13.883 0 0 1-6.353 0ZM44.558 6.635h5.67l9.644 14.823 9.71-14.822h5.637v27.813h-5.605V15.372L61.6 27.675h-3.421l-8.016-12.303V34.45h-5.604V6.636Zm-12.904 4.84c3.128 0 5.637-2.552 5.637-5.66 0-3.142-2.541-5.661-5.637-5.661-3.128 0-5.637 2.552-5.637 5.66 0 3.109 2.51 5.661 5.637 5.661ZM14.32 37.031C6.695 37.03.537 30.847.537 23.19c0-7.657 6.158-13.842 13.783-13.842 7.624 0 13.783 6.185 13.783 13.842 0 7.656-6.159 13.84-13.783 13.84Z"/></g><defs><clipPath id="a"><path fill="#fff" d="M0 0h228v42H0z"/></clipPath></defs></svg>