<svg width="181" height="30" fill="none" xmlns="http://www.w3.org/2000/svg"><g clip-path="url(#a)" fill="#000"><path d="M25.532 14.468c.945.759 1.768 1.617 2.308 2.694 2.77 5.518-.628 11.538-6.202 12.5a9.333 9.333 0 0 1-1.562.119c-6.226.007-12.447.004-18.673.004-1.097 0-1.403-.31-1.403-1.423V2.036C0 .899.298.6 1.434.6h17.153c4.299 0 7.93 3.028 8.617 7.26.35 2.141-.067 4.163-1.263 5.999-.127.199-.262.393-.41.608ZM13.5 24.532c2.078 0 4.16-.016 6.238.008 1.045.012 1.827-.425 2.427-1.248.62-.846.763-1.8.6-2.8-.202-1.225-1.235-2.742-3.043-2.667-.43.016-.858.004-1.287.004-3.715 0-7.43-.004-11.145 0-1.16 0-1.427.278-1.427 1.434 0 1.347-.004 2.698 0 4.045.004.894.35 1.224 1.252 1.224 2.13.004 4.255 0 6.385 0Zm-.735-11.991c1.84 0 3.683-.024 5.523.008 1.04.02 1.8-.437 2.375-1.24.68-.945.835-2.002.529-3.119-.41-1.502-1.506-2.336-3.055-2.336H7.044c-.822 0-1.176.334-1.18 1.14a328.054 328.054 0 0 0 0 4.422c.004.8.342 1.12 1.14 1.12 1.924.005 3.843.005 5.762.005Zm84.813 8.049V2.247c0-.19 0-.381.012-.572.051-.755.361-1.06 1.104-1.069 1.208-.007 2.416-.007 3.62 0 .731.004 1.084.358 1.084 1.085.004 9 .004 17.999 0 26.998 0 .731-.349 1.089-1.076 1.097-1.351.007-2.702.031-4.049-.02-.318-.012-.715-.21-.926-.453C92.33 23.539 87.331 17.75 82.33 11.965c-.656-.755-1.308-1.514-1.96-2.269-.067-.08-.146-.143-.297-.286v18.976c-.012 1.132-.286 1.402-1.41 1.402-1.097 0-2.194.005-3.29 0-.791-.003-1.129-.35-1.129-1.136V1.75c0-.79.338-1.137 1.125-1.14C76.798.6 78.228.616 79.655.6c.469-.003.814.175 1.116.525 2.4 2.793 4.804 5.582 7.207 8.371l9.198 10.676c.104.108.211.215.402.418Zm-46.554 9.198c-4.78 0-9.563.004-14.343 0-1.868-.003-3.12-1.323-2.928-3.126.043-.426.222-.863.44-1.236C38.712 17.579 43.238 9.74 47.77 1.905c1.462-2.527 4.986-2.547 6.464-.016 2.65 4.53 5.26 9.082 7.883 13.628 1.927 3.333 3.858 6.667 5.781 10.008.763 1.327.45 2.853-.739 3.735-.56.413-1.2.536-1.883.536-4.752-.011-9.5-.008-14.252-.008Zm-9.611-5.65h19.202c-3.206-5.55-6.385-11.053-9.603-16.62-3.214 5.567-6.393 11.062-9.6 16.62Zm122.298 5.65c-4.779 0-9.563.004-14.343 0-1.867-.003-3.119-1.323-2.928-3.126.044-.426.223-.863.441-1.236a12946.19 12946.19 0 0 1 13.576-23.521c1.463-2.527 4.987-2.547 6.465-.016 2.65 4.53 5.26 9.082 7.883 13.628 1.927 3.333 3.858 6.667 5.781 10.008.762 1.327.449 2.853-.739 3.735-.561.413-1.2.536-1.884.536-4.756-.011-9.504-.008-14.252-.008Zm-9.615-5.65h19.203c-3.207-5.55-6.385-11.053-9.603-16.62l-9.6 16.62Zm-24.395-9.615a3158.64 3158.64 0 0 0 4.068 4.868c2.321 2.777 4.653 5.546 6.953 8.335.223.27.382.672.402 1.021.031.664-.37 1.03-1.037 1.034-1.764.011-3.529.003-5.289.003-.413 0-.715-.186-.969-.508a8362.744 8362.744 0 0 0-7.351-9.242c-.166-.21-.337-.42-.536-.667-.107.115-.203.21-.29.318-2.455 3.075-4.923 6.142-7.354 9.237-.485.616-1.01.91-1.812.878-1.474-.06-2.952-.02-4.43-.016-.505 0-1.017.012-1.264-.54-.254-.564-.107-1.065.286-1.538 3.286-3.917 6.56-7.839 9.838-11.76l1.188-1.426-1.852-2.281c-2.578-3.159-5.165-6.318-7.735-9.48-.183-.227-.354-.509-.398-.787-.143-.934.259-1.367 1.208-1.367 1.494-.004 2.988.02 4.478-.012.632-.015 1.069.203 1.458.704 2.114 2.717 4.255 5.415 6.389 8.12.079.1.163.192.27.323.115-.127.223-.235.318-.354 2.126-2.71 4.255-5.415 6.369-8.133.35-.449.747-.667 1.335-.656 1.494.032 2.988.016 4.478.008.477-.004.953.008 1.184.513.246.548.175 1.077-.219 1.557-.937 1.14-1.867 2.289-2.801 3.43-2.201 2.69-4.402 5.383-6.599 8.073-.104.103-.187.214-.286.345Z"/></g><defs><clipPath id="a"><path fill="#fff" d="M0 0h181v29.803H0z"/></clipPath></defs></svg>