<svg width="50" height="50" fill="none" xmlns="http://www.w3.org/2000/svg"><path d="M35.726 26.256c.054 6.047 5.214 8.06 5.274 8.09-.048.138-.826 2.868-2.722 5.69-1.64 2.437-3.336 4.86-6.012 4.911-2.636.05-3.48-1.588-6.488-1.588-3.008 0-3.95 1.538-6.44 1.638-2.58.1-4.55-2.632-6.2-5.06-3.38-4.968-5.958-14.035-2.494-20.155 1.72-3.04 4.796-4.964 8.13-5.016 2.54-.046 4.936 1.742 6.484 1.742 1.554 0 4.464-2.15 7.526-1.834 1.28.054 4.878.524 7.186 3.96-.184.124-4.292 2.554-4.244 7.62v.002ZM24.948 14.218c-.296-2.3.816-4.69 2.086-6.19 1.42-1.69 3.812-2.948 5.79-3.028.252 2.34-.676 4.694-2.046 6.388-1.372 1.688-3.624 3.004-5.83 2.83Z" fill="#fff"/></svg>