<svg width="67" height="60" fill="none" xmlns="http://www.w3.org/2000/svg"><path d="M46.108 18.527 26.064 6.952V0l26.063 15.048-6.02 3.48ZM26.063 6.952 6.02 18.527 0 15.054 26.063.006v6.946Z" fill="#000"/><path d="M52.139 44.928 26.05 59.934l.012-6.953 20.063-11.538 6.013 3.485Z" fill="#0047FF"/><path d="M40.534 23.95 14.446 38.958l.012-6.953L34.52 20.466l6.014 3.485ZM26.051 59.934.012 44.844l6.025-3.468 20.026 11.606-.012 6.952Z" fill="#000"/><path d="M66.14 60 40.1 44.91l6.026-3.467 20.026 11.605L66.14 60Z" fill="#0047FF"/><path d="M52.127 38.204v-23.15l-6.02 3.473V34.72l6.02 3.485ZM6.02 18.527v23.144L0 45.144V15.048l6.02 3.48Z" fill="#000"/></svg>