<svg width="57" height="60" fill="none" xmlns="http://www.w3.org/2000/svg"><g fill="#0047FF"><path d="M9.614 10.84v7.563L28.391 7.57V0L9.614 10.84Z"/><path d="M28.384 7.57V0l18.77 10.84v7.563L28.384 7.57Z"/><path d="M25.31 6.718v20.815l6.554-3.788V6.718h-6.553Z"/></g><g fill="#000"><path d="m18.77 59.994 6.554-3.782-18.77-10.84L0 49.16l18.77 10.834Z"/><path d="M6.554 45.378 0 49.16V27.486l6.554-3.788v21.68Z"/><path d="m7.354 48.465 18.029-10.407-6.554-3.782L4.077 42.79l3.277 5.675Z"/></g><g fill="#000"><path d="m56.77 27.487-6.555-3.782v21.673l6.554 3.788v-21.68Z"/><path d="m50.215 45.379 6.554 3.781L38 60l-6.554-3.788 18.77-10.833Z"/><path d="M52.49 43.137 34.467 32.729v7.57l14.746 8.513 3.277-5.675Z"/></g></svg>