<svg width="90" height="90" fill="none" xmlns="http://www.w3.org/2000/svg"><g fill="#fff"><path d="M13 56.534 32.976 68.07V75L7 60.002l6-3.468Zm39.956-23.068L32.977 21.93V15l25.978 14.998-6 3.468Z"/><path d="M32.977 21.93 13 33.465l-6-3.461 25.977-14.998v6.923Z"/><path d="M13 33.466v23.068l-6 3.462V29.997l6 3.468Zm45.955 19.672V30.005l-6 3.461v16.21l6 3.462Z"/></g><g fill="#0047FF"><path d="M76.353 33.466 56.375 21.93V15l25.977 14.998-5.999 3.468ZM36.397 56.534 56.375 68.07V75L30.398 60.002l5.999-3.468ZM56.375 68.07l19.978-11.536 6 3.462-25.978 14.998v-6.923Z"/><path d="M76.353 56.534V33.466l6-3.462v29.997l-6-3.467ZM30.398 36.85V60l5.999-3.467V40.312l-6-3.462Z"/></g></svg>