<svg width="90" height="90" fill="none" xmlns="http://www.w3.org/2000/svg"><path d="M45.404 21.922 25.43 33.456l-5.998-3.46L45.404 15v6.922Z" fill="#fff"/><path d="M55.973 21.1 45.403 15v6.922l4.571 2.64 5.999-3.462ZM25.43 33.456V65.77l-5.998.432V29.996l5.998 3.46Z" fill="#fff"/><path d="M12 59.285v6.934l10.407 6.028.012-6.922L12 59.285Z" fill="#fff"/><path d="m33.491 58.955-11.072 6.37-.012 6.922L33.49 65.87v-6.916Z" fill="#fff"/><path d="m45.398 68.072 19.974-11.534 5.998 3.46-25.972 14.996v-6.922ZM34.83 68.9 45.397 75v-6.928l-4.57-2.64-5.999 3.468Z" fill="#0047FF"/><path d="M65.372 56.544V24.23l5.998-.432v36.206l-5.998-3.461Z" fill="#0047FF"/><path d="M78.802 30.71v-6.935l-10.407-6.028-.012 6.928 10.419 6.034Zm-21.492.335 11.073-6.37.012-6.928-11.085 6.376v6.922Z" fill="#0047FF"/></svg>