<svg width="24" height="24" fill="none" xmlns="http://www.w3.org/2000/svg"><path fill-rule="evenodd" clip-rule="evenodd" d="M12 24c6.627 0 12-5.373 12-12S18.627 0 12 0 0 5.373 0 12s5.373 12 12 12zm-3.78-7.5c2.468 0 4.469-2.015 4.469-4.5s-2.002-4.5-4.47-4.5S3.75 9.514 3.75 12s2 4.5 4.47 4.5zm9.37-4.5c0 2.34-1 4.236-2.234 4.236S13.122 14.339 13.122 12c0-2.34 1-4.236 2.235-4.236 1.234 0 2.235 1.896 2.235 4.236zm2.007 0c0 2.097-.352 3.796-.786 3.796-.434 0-.786-1.7-.786-3.796 0-2.095.352-3.795.787-3.795.434 0 .785 1.7.785 3.795z" fill="#000"/></svg>