<svg width="20" height="20" fill="none" xmlns="http://www.w3.org/2000/svg"><path fill-rule="evenodd" clip-rule="evenodd" d="M7.433 5a1.183 1.183 0 10-2.366 0 1.183 1.183 0 002.366 0zM6.25 2.017a2.983 2.983 0 110 5.966 2.983 2.983 0 010-5.966zM14.934 5a1.183 1.183 0 10-2.367 0 1.183 1.183 0 002.367 0zM13.75 2.017a2.983 2.983 0 110 5.966 2.983 2.983 0 010-5.966zM9.123 9.1H3.377l-.263.264-1.25 1.25-.264.263v7.106h1.8v-6.36l.723-.723h4.254l.723.723v6.36h1.8v-6.36l.723-.723h4.254l.723.723v6.36h1.8v-7.106l-.263-.263-1.25-1.25-.264-.264h-5.746l-.263.264-.614.613-.614-.613-.263-.264z" fill="#000"/></svg>